Coordinates
version=1
nRows=8
nColumns=34
inDegrees=yes

Units are S.I. units (second, meters, Newtons, ...)
If the header above contains a line with 'inDegrees', this indicates whether rotational values are in degrees (yes) or radians (no).

endheader
time	pelvis_tilt	pelvis_list	pelvis_rotation	pelvis_tx	pelvis_ty	pelvis_tz	hip_flexion_r	hip_adduction_r	hip_rotation_r	knee_angle_r	ankle_angle_r	subtalar_angle_r	mtp_angle_r	hip_flexion_l	hip_adduction_l	hip_rotation_l	knee_angle_l	ankle_angle_l	subtalar_angle_l	mtp_angle_l	lumbar_extension	lumbar_bending	lumbar_rotation	arm_flex_r	arm_add_r	arm_rot_r	elbow_flex_r	pro_sup_r	arm_flex_l	arm_add_l	arm_rot_l	elbow_flex_l	pro_sup_l
      4.18333330	    -10.02134445	     -0.07391825	     -3.17234965	      0.75455284	      0.75514033	     -0.36412744	     57.84870104	     17.18264595	     10.12157443	     71.27272189	    -24.27526527	    -35.00000000	      0.00000000	     70.38917566	    -14.19370543	     -5.31965613	     34.56413134	     50.00000000	    -35.00000000	      0.00000000	    -25.93460916	      3.00291110	     -4.19868527	     45.06327941	     14.01750037	     82.94493808	    116.04610408	    104.84353724	     36.58437958	     10.02507213	     78.92929249	    120.16356854	     99.75304907
      4.20000000	    -11.30906997	      0.32312609	     -3.42709270	      0.75289066	      0.75350709	     -0.36361259	     60.21292817	     17.34944453	     10.99804551	     71.67434879	    -16.72616390	    -35.00000000	      0.00000000	     71.30701346	    -14.40984576	     -6.22254201	     33.25570317	     50.00000000	    -35.00000000	      0.00000000	    -24.86433827	      2.11023564	     -3.97781478	     44.51079091	     13.57641839	     82.97260737	    116.03400351	    105.42855667	     36.52749354	     10.05556511	     79.32179758	    118.98536935	     99.88748333
      4.21666670	    -12.67170335	     -0.06146254	     -3.36320498	      0.75431756	      0.74685235	     -0.36228248	     61.98817434	     17.51847903	     10.24792627	     72.10468857	    -13.07958036	    -35.00000000	      0.00000000	     73.26321431	    -14.69470326	     -5.27724992	     33.14582731	     50.00000000	    -35.00000000	      0.00000000	    -23.57143820	      2.64679848	     -3.85797145	     44.23028609	     13.23339638	     83.03975436	    115.75027060	    106.05560471	     36.45775990	      9.99193219	     79.54196129	    118.17200710	     99.94141597
      4.23333330	    -13.44457404	      0.06207668	     -3.64144336	      0.75249216	      0.74050543	     -0.36151710	     62.95602479	     18.06554440	      9.65562028	     73.59619099	    -19.66854030	    -35.00000000	      0.00000000	     74.17120821	    -15.24805861	     -5.86654833	     33.92090755	     50.00000000	    -35.00000000	      0.00000000	    -23.22594773	      2.75622502	     -3.77305210	     44.34569216	     13.20186199	     83.55467302	    115.49350067	    106.60895064	     36.57933783	      9.90310147	     79.65781833	    118.24856307	    100.00151555
      4.25000000	    -13.46680407	     -0.21199696	     -4.10316064	      0.74799612	      0.74041096	     -0.36071503	     62.58459744	     19.08912338	      9.27105158	     74.21486275	    -29.95789191	    -35.00000000	      0.00000000	     74.41079531	    -16.02612207	     -5.38627122	     33.93268601	     50.00000000	    -35.00000000	      0.00000000	    -23.79375620	      3.01414292	     -3.31319711	     45.00239049	     13.11283776	     83.50911115	    115.39130444	    106.98603342	     37.05412695	     10.03581256	     79.45626241	    117.93245031	    100.06861993
      4.26666670	    -13.73396565	     -0.33955884	     -4.35544138	      0.74747634	      0.73599860	     -0.35901445	     63.09510629	     19.66867200	      8.34494914	     75.25465689	    -36.55927777	    -35.00000000	      0.00000000	     75.17079376	    -16.30562482	     -4.69037371	     34.48326710	     50.00000000	    -35.00000000	      0.00000000	    -23.96334881	      3.56439958	     -2.86813201	     45.63472878	     13.06257503	     83.39598547	    115.05885971	    107.30729695	     37.50545340	     10.03235945	     79.47754514	    118.31618821	    100.16208821
      4.28333330	    -14.15891159	     -0.50664016	     -4.66963333	      0.75107662	      0.73266166	     -0.35904036	     63.72372596	     20.01356989	      7.93065727	     75.59706900	    -41.61723487	    -34.77443936	      0.00000000	     75.94545636	    -16.91692546	     -4.66665216	     34.84020696	     50.00000000	    -35.00000000	      0.00000000	    -23.90988217	      4.02434667	     -2.51622936	     45.89448550	     12.93465708	     83.57811304	    114.91536111	    107.77836941	     37.48709738	     10.09527710	     79.20497719	    118.27366839	    100.36496223
      4.30000000	    -15.36724948	     -1.03482739	     -4.78280903	      0.75147564	      0.72487221	     -0.35847416	     65.28230872	     20.40550469	      7.25009640	     75.82421068	    -43.21795051	    -32.51477095	      0.00000000	     79.21369402	    -17.24188134	     -1.81465630	     37.41245764	     50.00000000	    -35.00000000	      0.00000000	    -22.51954592	      4.99480038	     -2.09711964	     45.89693840	     12.62727868	     83.70855818	    114.96270481	    108.07405791	     37.13076054	     10.31474625	     79.20714417	    118.31416781	    100.56724486
